<svg xmlns="http://www.w3.org/2000/svg" data-name="Layer 1" viewBox="0 0 512 512"><path fill="#00acea" d="M116,360.276v24.448A8.164,8.164,0,0,0,123.909,393h0A8.315,8.315,0,0,0,132,384.729V369.621a87.243,87.243,0,0,0,72,.1v15a8,8,0,0,0,16,0V360.441c5-3.085,8.52-6.566,12.278-10.427A92.739,92.739,0,0,0,259,285.192V240H243v45.192a76.621,76.621,0,0,1-21.983,53.66,73.218,73.218,0,0,1-52.725,22.592c-19.8,0-38.343-8.023-52.529-22.592A76.407,76.407,0,0,1,94,285.192V240H78v45.192a92.358,92.358,0,0,0,26.332,64.822A105.31,105.31,0,0,0,116,360.276Z" data-name="&lt;Path&gt;"/><g data-name="&lt;Group&gt;"><g data-name="&lt;Group&gt;"><path fill="#00efd1" d="M318 490.99v-49.9C318 405.556 288.677 377 253.142 377H212.405a7.843 7.843 0 0 0-4.228 1.032L167.2 403.454 128.287 378.17a7.88 7.88 0 0 0-4.375-1.17H83.4A64.174 64.174 0 0 0 19 441.091v49.9A7.966 7.966 0 0 0 26.95 499H309.586C314.005 499 318 495.408 318 490.99zm-283-49.9A48.157 48.157 0 0 1 83.4 393H121.53L159 417.183V483H35zM302 483H175V417.3L214.691 393h38.451C279.854 393 302 414.379 302 441.091zM260 247a8 8 0 0 0 8-8V210a8 8 0 0 0-6.615-7.872A94.772 94.772 0 0 0 196.3 121.7l-2.135-13a8 8 0 0 0-7.894-6.7h-36a8.039 8.039 0 0 0-7.894 6.749l-2.136 13.044a94.147 94.147 0 0 0-45.516 31.754A95.5 95.5 0 0 0 75.166 202H74a8 8 0 0 0-8 8v29a8 8 0 0 0 8 8zm-8-16H82V218H252zM149.256 135.772a8 8 0 0 0 5.946-6.462L157.06 118h22.417l1.857 11.371a8.077 8.077 0 0 0 5.947 6.524 73.5 73.5 0 0 1 7.4 2.3l-1.4 25.344A10.085 10.085 0 0 1 183.1 173h-28.85a10.084 10.084 0 0 1-10.186-9.463l-1.494-25.8C144.765 136.955 146.994 136.34 149.256 135.772zM107.32 163.408A79.8 79.8 0 0 1 126.984 145.5l1.1 18.966A26.1 26.1 0 0 0 154.247 189H183.1a26.1 26.1 0 0 0 26.162-24.565l1.015-18.483a79.43 79.43 0 0 1 18.947 17.426A77.453 77.453 0 0 1 245.32 202H91.229A78.082 78.082 0 0 1 107.32 163.408z" data-name="&lt;Compound Path&gt;"/></g><g data-name="&lt;Group&gt;"><path fill="#00acea" d="M131.247 291.2a22.128 22.128 0 0 0 22.1-22.1 8 8 0 0 0-16 0 6.1 6.1 0 0 1-12.207 0 8 8 0 0 0-16 0A22.128 22.128 0 0 0 131.247 291.2zM215.868 261.094a8 8 0 0 0-8 8 6.1 6.1 0 0 1-12.207 0 8 8 0 0 0-16 0 22.1 22.1 0 0 0 44.207 0A8 8 0 0 0 215.868 261.094z" data-name="&lt;Path&gt;"/><path fill="#00acea" d="M396.1,73.559a75.689,75.689,0,0,0-53.926,127.477,49.882,49.882,0,0,1,13.674,33.621,8.183,8.183,0,0,0,.4,16.343H438.5a8,8,0,1,0,0-16h-.476c.047-13,4.794-23.891,13.971-33.494.025-.026.049-.142.073-.169a76.358,76.358,0,0,0,20.707-52.046A75.691,75.691,0,0,0,396.1,73.559Zm44.285,116.935C428.453,203,422.116,218,422.038,235h-50.2a65.408,65.408,0,0,0-18.088-44.827,58.934,58.934,0,0,1-16.069-41.852c.5-31.3,27.37-58.218,58.667-58.719a59.614,59.614,0,0,1,60.423,59.745A60.493,60.493,0,0,1,440.385,190.494Z" data-name="&lt;Compound Path&gt;"/><path fill="#00acea" d="M372.238 279H422.5a8 8 0 0 0 0-16H372.238a8 8 0 0 0 0 16zM396 57a8 8 0 0 0 8-8V21.01a8 8 0 1 0-16 0V49A8 8 0 0 0 396 57zM479.557 53.75L458.994 73.171A8 8 0 1 0 469.98 84.8l20.563-19.421A8 8 0 1 0 479.557 53.75zM329.4 84.417A8 8 0 0 0 335.1 70.8L315.388 50.809a8 8 0 0 0-11.394 11.232L323.7 82.033A7.977 7.977 0 0 0 329.4 84.417z" data-name="&lt;Path&gt;"/></g></g></svg>