<svg version="1.1" viewBox="0.0 0.0 96.0 96.0" fill="none" stroke="none" stroke-linecap="square" stroke-miterlimit="10" xmlns:xlink="http://www.w3.org/1999/xlink" xmlns="http://www.w3.org/2000/svg"><clipPath id="p.0"><path d="m0 0l96.0 0l0 96.0l-96.0 0l0 -96.0z" clip-rule="nonzero"/></clipPath><g clip-path="url(#p.0)"><path fill="#000000" fill-opacity="0.0" d="m0 0l96.0 0l0 96.0l-96.0 0z" fill-rule="evenodd"/><path fill="#ffffff" d="m79.65823 1.3123436l0 53.086613l-32.141727 32.14173l-32.141735 -32.14173l0 -53.086613z" fill-rule="evenodd"/><path stroke="#ffe500" stroke-width="8.0" stroke-linejoin="round" stroke-linecap="butt" d="m79.65823 1.3123436l0 53.086613l-32.141727 32.14173l-32.141735 -32.14173l0 -53.086613z" fill-rule="evenodd"/><path fill="#ffffff" d="m78.77428 2.3228347l0 51.480316l-31.165352 31.165356l-31.165356 -31.165356l0 -51.480316z" fill-rule="evenodd"/><path stroke="#2aaebb" stroke-width="4.0" stroke-linejoin="round" stroke-linecap="butt" d="m78.77428 2.3228347l0 51.480316l-31.165352 31.165356l-31.165356 -31.165356l0 -51.480316z" fill-rule="evenodd"/><path fill="#000000" fill-opacity="0.0" d="m8.367455 19.750656l78.29921 0l0 30.70866l-78.29921 0z" fill-rule="evenodd"/><path fill="#000000" d="m25.471636 37.710655l-4.46875 0l0 -6.53125l4.46875 0l0 1.3125l-3.171875 0l0 1.296875l2.15625 0l0 1.3125l-2.15625 0l0 1.296875l3.171875 0l0 1.3125zm6.0021973 0l-1.59375 0l-1.25 -2.109375l-1.265625 2.109375l-1.578125 0l2.0 -3.265625l-2.0 -3.265625l1.578125 0l1.265625 2.109375l1.25 -2.109375l1.59375 0l-2.015625 3.265625l2.015625 3.265625zm1.8985271 -5.21875l0 2.609375l1.3125 0q0.265625 0 0.5 -0.09375q0.25 -0.109375 0.421875 -0.28125q0.171875 -0.1875 0.265625 -0.421875q0.109375 -0.234375 0.109375 -0.515625q0 -0.265625 -0.109375 -0.5q-0.09375 -0.25 -0.265625 -0.421875q-0.171875 -0.171875 -0.421875 -0.265625q-0.234375 -0.109375 -0.5 -0.109375l-1.3125 0zm0 5.21875l-1.296875 0l0 -6.53125l2.609375 0q0.359375 0 0.6875 0.09375q0.34375 0.09375 0.625 0.265625q0.296875 0.171875 0.53125 0.40625q0.234375 0.234375 0.40625 0.53125q0.171875 0.296875 0.265625 0.625q0.09375 0.328125 0.09375 0.6875q0 0.546875 -0.203125 1.03125q-0.203125 0.46875 -0.5625 0.828125q-0.359375 0.34375 -0.84375 0.546875q-0.46875 0.203125 -1.0 0.203125l-1.3125 0l0 1.3125zm9.161377 0l-4.46875 0l0 -6.53125l4.46875 0l0 1.3125l-3.171875 0l0 1.296875l2.15625 0l0 1.3125l-2.15625 0l0 1.296875l3.171875 0l0 1.3125zm2.2209473 -5.21875l0 2.609375l1.3125 0q0.265625 0 0.5 -0.09375q0.25 -0.109375 0.421875 -0.28125q0.171875 -0.1875 0.265625 -0.421875q0.109375 -0.234375 0.109375 -0.515625q0 -0.265625 -0.109375 -0.5q-0.09375 -0.25 -0.265625 -0.421875q-0.171875 -0.171875 -0.421875 -0.265625q-0.234375 -0.109375 -0.5 -0.109375l-1.3125 0zm0 5.21875l-1.296875 0l0 -6.53125l2.609375 0q0.359375 0 0.6875 0.09375q0.34375 0.09375 0.625 0.265625q0.296875 0.171875 0.53125 0.40625q0.234375 0.234375 0.40625 0.53125q0.171875 0.296875 0.265625 0.625q0.09375 0.328125 0.09375 0.6875q0 0.34375 -0.09375 0.671875q-0.078125 0.3125 -0.234375 0.59375q-0.15625 0.28125 -0.390625 0.53125q-0.21875 0.234375 -0.5 0.421875l0.71875 1.703125l-1.390625 0l-0.5625 -1.3125l-1.46875 0l0 1.3125zm6.080597 0l-1.296875 0l0 -6.53125l1.296875 0l0 6.53125zm5.6906586 0l-4.46875 0l0 -6.53125l4.46875 0l0 1.3125l-3.171875 0l0 1.296875l2.15625 0l0 1.3125l-2.15625 0l0 1.296875l3.171875 0l0 1.3125zm6.1428223 0l-1.390625 0l-2.53125 -4.296875l0 4.296875l-1.296875 0l0 -6.53125l1.390625 0l2.515625 4.296875l0 -4.296875l1.3125 0l0 6.53125zm6.4358673 -0.671875q-0.46875 0.390625 -1.03125 0.609375q-0.5625 0.203125 -1.171875 0.203125q-0.453125 0 -0.890625 -0.125q-0.421875 -0.109375 -0.8125 -0.328125q-0.375 -0.234375 -0.6875 -0.53125q-0.296875 -0.3125 -0.53125 -0.6875q-0.21875 -0.375 -0.34375 -0.8125q-0.109375 -0.4375 -0.109375 -0.890625q0 -0.46875 0.109375 -0.890625q0.125 -0.4375 0.34375 -0.8125q0.234375 -0.375 0.53125 -0.6875q0.3125 -0.3125 0.6875 -0.53125q0.390625 -0.21875 0.8125 -0.34375q0.4375 -0.125 0.890625 -0.125q0.609375 0 1.171875 0.21875q0.5625 0.203125 1.03125 0.59375l-0.703125 1.140625q-0.28125 -0.3125 -0.671875 -0.46875q-0.390625 -0.171875 -0.828125 -0.171875q-0.421875 0 -0.8125 0.171875q-0.375 0.15625 -0.65625 0.4375q-0.28125 0.28125 -0.453125 0.65625q-0.15625 0.375 -0.15625 0.8125q0 0.421875 0.15625 0.796875q0.171875 0.375 0.453125 0.65625q0.28125 0.28125 0.65625 0.453125q0.390625 0.15625 0.8125 0.15625q0.4375 0 0.828125 -0.15625q0.390625 -0.171875 0.671875 -0.484375l0.703125 1.140625zm5.221283 0.671875l-4.46875 0l0 -6.53125l4.46875 0l0 1.3125l-3.171875 0l0 1.296875l2.15625 0l0 1.3125l-2.15625 0l0 1.296875l3.171875 0l0 1.3125z" fill-rule="nonzero"/></g></svg>