<svg version="1.1" viewBox="0.0 0.0 96.0 96.0" fill="none" stroke="none" stroke-linecap="square" stroke-miterlimit="10" xmlns:xlink="http://www.w3.org/1999/xlink" xmlns="http://www.w3.org/2000/svg"><clipPath id="p.0"><path d="m0 0l96.0 0l0 96.0l-96.0 0l0 -96.0z" clip-rule="nonzero"/></clipPath><g clip-path="url(#p.0)"><path fill="#000000" fill-opacity="0.0" d="m0 0l96.0 0l0 96.0l-96.0 0z" fill-rule="evenodd"/><path fill="#2aaebb" d="m79.65823 1.3123436l0 53.086613l-32.141727 32.14173l-32.141735 -32.14173l0 -53.086613z" fill-rule="evenodd"/><path stroke="#ffe500" stroke-width="2.0" stroke-linejoin="round" stroke-linecap="butt" d="m79.65823 1.3123436l0 53.086613l-32.141727 32.14173l-32.141735 -32.14173l0 -53.086613z" fill-rule="evenodd"/><path fill="#000000" fill-opacity="0.0" d="m24.06755 -4.1554923l31.11811 0l0 74.86614l-31.11811 0z" fill-rule="evenodd"/><path fill="#ffe500" d="m47.270676 55.819508q-0.78125 0 -1.0625 -0.390625q-0.265625 -0.390625 -0.265625 -1.28125l0 -5.46875q0 -4.078125 -0.234375 -9.890625q-0.0625 -1.078125 -0.0625 -3.125q-0.171875 -4.265627 -0.171875 -6.718752l0.046875 -3.359375q0.0625 -1.5 0.0625 -3.359375q0 -1.625 -0.0625 -2.875q-0.046875 -0.90625 -0.078125 -1.5q-0.03125 -0.609375 -0.09375 -0.96875l-0.125 0.421875q-0.65625 4.375 -1.984375 11.515625q-1.3125 7.140627 -2.15625 11.468752q-0.828125 3.84375 -1.078125 5.453125q-0.125 0.78125 -0.515625 1.265625q-0.375 0.484375 -0.859375 0.484375q-0.484375 0 -0.84375 -0.484375q-0.359375 -0.484375 -0.421875 -1.375q-0.421875 -2.890625 -3.0625 -16.078127q-2.640625 -13.203125 -2.9375 -13.687499q-0.171875 5.390624 -0.171875 12.124999q0 5.265627 0.0625 9.531252q0.046875 4.265625 0.046875 9.546875q0 0.890625 0.1875 2.8125l0.125 2.875q0 1.140625 -0.421875 1.5625q-1.75 0 -1.75 -3.109375l0 -10.03125l0.0625 -6.046875q0.0625 -2.703125 0.0625 -6.125002q0 -3.96875 0.0625 -7.078125l0.125 -7.140624l0 -5.28125q0 -0.296875 0.265625 -0.53125q0.265625 -0.25 0.5625 -0.25q0.484375 0 0.671875 0.484375q0.53125 1.796875 2.6875 10.624999q2.171875 8.8125 3.25 13.609377q0.53125 2.8125 1.734375 9.953125l0.421875 -2.328125q0.171875 -1.078125 0.53125 -3.0q0.734375 -4.6875 0.90625 -5.28125l2.765625 -14.703127l0.53125 -3.124999l0.671875 -3.359375l0.296875 -1.796875q0.0625 -0.59375 0.359375 -0.921875q0.296875 -0.34375 0.65625 -0.34375q0.296875 0 0.53125 0.3125q0.25 0.296875 0.25 0.828125l0 5.953125q0 4.499999 0.53125 13.609374q0.421875 8.406252 0.421875 13.500002q0 1.625 0.1875 4.984375q0.125 4.3125 0.125 6.0q0 1.3125 -0.1875 1.734375q-0.234375 0.359375 -0.65625 0.359375z" fill-rule="nonzero"/><path fill="#000000" fill-opacity="0.0" d="m43.570335 10.5663l37.984253 0l0 74.86614l-37.984253 0z" fill-rule="evenodd"/><path fill="#ffe500" d="m51.52346 69.2913q-0.71875 0 -1.4375 -0.359375q-0.71875 -0.359375 -0.71875 -0.84375q0 -0.359375 0.484375 -1.203125q0.484375 -0.78125 0.421875 -1.203125l-0.1875 -5.28125l-0.421875 -16.375l-0.109375 -7.265625q-0.0625 -6.65625 -0.296875 -8.328125q-0.125 -0.671875 -0.484375 -1.5q-0.421875 -1.140625 -0.421875 -1.625q0 -1.4375 4.5625 -1.4375l0.296875 0q3.0625 0 5.28125 2.09375q1.734375 1.625 3.125 5.109375q0.953125 2.75 1.4375 6.171875q0.234375 1.796875 0.421875 5.515625l0 1.859375q0 3.734375 -1.0 8.078125q-0.984375 4.34375 -2.78125 8.125q-1.078125 2.40625 -2.796875 4.328125q-1.703125 1.921875 -3.265625 3.03125q-1.5625 1.109375 -2.109375 1.109375zm0.90625 -3.0625q2.21875 -1.140625 3.953125 -3.328125q1.75 -2.1875 2.765625 -4.828125q0.90625 -2.21875 1.5 -5.0625q0.609375 -2.859375 0.84375 -5.328125q0.171875 -2.15625 0.171875 -4.140625q0 -17.515625 -9.65625 -17.515625q-1.25 0 -1.25 0.65625q0 2.109375 0.234375 4.984375q0.234375 2.9375 0.234375 4.984375q0 3.296875 0.484375 11.453125q0.421875 7.078125 0.421875 11.40625l0 6.71875l0.296875 0z" fill-rule="nonzero"/></g></svg>