<svg version="1.1" viewBox="0.0 0.0 96.0 96.0" fill="none" stroke="none" stroke-linecap="square" stroke-miterlimit="10" xmlns:xlink="http://www.w3.org/1999/xlink" xmlns="http://www.w3.org/2000/svg"><clipPath id="p.0"><path d="m0 0l96.0 0l0 96.0l-96.0 0l0 -96.0z" clip-rule="nonzero"/></clipPath><g clip-path="url(#p.0)"><path fill="#000000" fill-opacity="0.0" d="m0 0l96.0 0l0 96.0l-96.0 0z" fill-rule="evenodd"/><path fill="#ffffff" d="m79.65823 1.3123436l0 53.086613l-32.141727 32.14173l-32.141735 -32.14173l0 -53.086613z" fill-rule="evenodd"/><path stroke="#ffe500" stroke-width="8.0" stroke-linejoin="round" stroke-linecap="butt" d="m79.65823 1.3123436l0 53.086613l-32.141727 32.14173l-32.141735 -32.14173l0 -53.086613z" fill-rule="evenodd"/><path fill="#ffffff" d="m78.77428 2.3228347l0 51.480316l-31.165352 31.165356l-31.165356 -31.165356l0 -51.480316z" fill-rule="evenodd"/><path stroke="#2aaebb" stroke-width="4.0" stroke-linejoin="round" stroke-linecap="butt" d="m78.77428 2.3228347l0 51.480316l-31.165352 31.165356l-31.165356 -31.165356l0 -51.480316z" fill-rule="evenodd"/><path fill="#000000" fill-opacity="0.0" d="m8.367455 19.750656l78.29921 0l0 32.31496l-78.29921 0z" fill-rule="evenodd"/><path fill="#000000" d="m23.826418 33.021908l0 2.984375l1.484375 0q0.3125 0 0.578125 -0.109375q0.28125 -0.125 0.484375 -0.328125q0.203125 -0.203125 0.3125 -0.46875q0.125 -0.28125 0.125 -0.578125q0 -0.3125 -0.125 -0.578125q-0.109375 -0.28125 -0.3125 -0.484375q-0.203125 -0.203125 -0.484375 -0.3125q-0.265625 -0.125 -0.578125 -0.125l-1.484375 0zm0 5.96875l-1.5 0l0 -7.468752l2.984375 0q0.421875 0 0.796875 0.109375q0.375 0.109375 0.703125 0.3125q0.34375 0.1875019 0.609375 0.4687519q0.28125 0.265625 0.46875 0.609375q0.203125 0.328125 0.296875 0.703125q0.109375 0.375 0.109375 0.796875q0 0.609375 -0.234375 1.15625q-0.234375 0.546875 -0.640625 0.953125q-0.40625 0.390625 -0.953125 0.625q-0.53125 0.234375 -1.15625 0.234375l-1.484375 0l0 1.5zm6.84227 -5.96875l0 2.984375l1.4843731 0q0.3125 0 0.578125 -0.109375q0.28125 -0.125 0.484375 -0.328125q0.203125 -0.203125 0.3125 -0.46875q0.125 -0.28125 0.125 -0.578125q0 -0.3125 -0.125 -0.578125q-0.109375 -0.28125 -0.3125 -0.484375q-0.203125 -0.203125 -0.484375 -0.3125q-0.265625 -0.125 -0.578125 -0.125l-1.4843731 0zm0 5.96875l-1.5 0l0 -7.468752l2.984373 0q0.421875 0 0.796875 0.109375q0.375 0.109375 0.703125 0.3125q0.34375 0.1875019 0.609375 0.4687519q0.28125 0.265625 0.46875 0.609375q0.203125 0.328125 0.296875 0.703125q0.109375 0.375 0.109375 0.796875q0 0.375 -0.09375 0.75q-0.09375 0.359375 -0.28125 0.6875q-0.171875 0.328125 -0.4375 0.609375q-0.25 0.265625 -0.578125 0.46875l0.828125 1.953125l-1.59375 0l-0.640625 -1.5l-1.6718731 0l0 1.5zm12.758833 -3.703125q0 0.53125 -0.140625 1.03125q-0.125 0.484375 -0.375 0.921875q-0.25 0.421875 -0.609375 0.78125q-0.359375 0.34375 -0.78125 0.609375q-0.421875 0.25 -0.921875 0.375q-0.5 0.140625 -1.03125 0.140625q-0.53125 0 -1.015625 -0.140625q-0.484375 -0.125 -0.921875 -0.375q-0.421875 -0.265625 -0.78125 -0.609375q-0.359375 -0.359375 -0.609375 -0.78125q-0.25 -0.4375 -0.390625 -0.921875q-0.140625 -0.5 -0.140625 -1.03125q0 -0.53125 0.140625 -1.015625q0.140625 -0.5 0.390625 -0.921875q0.25 -0.4375 0.609375 -0.78125q0.359375 -0.359375 0.78125 -0.6093769q0.4375 -0.25 0.921875 -0.390625q0.484375 -0.140625 1.015625 -0.140625q0.53125 0 1.03125 0.140625q0.5 0.140625 0.921875 0.390625q0.421875 0.2500019 0.78125 0.6093769q0.359375 0.34375 0.609375 0.78125q0.25 0.421875 0.375 0.921875q0.140625 0.484375 0.140625 1.015625zm-1.484375 0q0 -0.484375 -0.1875 -0.921875q-0.1875 -0.4375 -0.515625 -0.75q-0.3125 -0.328125 -0.75 -0.515625q-0.421875 -0.1875 -0.921875 -0.1875q-0.484375 0 -0.921875 0.1875q-0.4375 0.1875 -0.765625 0.515625q-0.3125 0.3125 -0.5 0.75q-0.1875 0.4375 -0.1875 0.921875q0 0.5 0.1875 0.921875q0.1875 0.421875 0.5 0.75q0.328125 0.328125 0.765625 0.515625q0.4375 0.1875 0.921875 0.1875q0.5 0 0.921875 -0.1875q0.4375 -0.1875 0.75 -0.515625q0.328125 -0.328125 0.515625 -0.75q0.1875 -0.421875 0.1875 -0.921875zm5.418976 0.71875q0 0.625 -0.234375 1.171875q-0.234375 0.53125 -0.640625 0.9375q-0.390625 0.40625 -0.9375 0.640625q-0.546875 0.234375 -1.15625 0.234375q-0.375 0 -0.75 -0.09375l0 -1.609375q0.15625 0.109375 0.34375 0.15625q0.203125 0.046875 0.40625 0.046875q0.296875 0 0.5625 -0.109375q0.28125 -0.125 0.484375 -0.328125q0.203125 -0.203125 0.3125 -0.46875q0.125 -0.265625 0.125 -0.578125l0 -4.484377l1.484375 0l0 4.484377zm6.427948 2.984375l-5.125 0l0 -7.468752l5.125 0l0 1.5000019l-3.625 0l0 1.5l2.453125 0l0 1.484375l-2.453125 0l0 1.484375l3.625 0l0 1.5zm6.822098 -0.765625q-0.53125 0.453125 -1.171875 0.6875q-0.640625 0.234375 -1.34375 0.234375q-0.53125 0 -1.015625 -0.140625q-0.484375 -0.125 -0.921875 -0.375q-0.421875 -0.265625 -0.78125 -0.609375q-0.359375 -0.359375 -0.609375 -0.78125q-0.25 -0.4375 -0.390625 -0.921875q-0.140625 -0.5 -0.140625 -1.03125q0 -0.53125 0.140625 -1.015625q0.140625 -0.5 0.390625 -0.921875q0.25 -0.4375 0.609375 -0.78125q0.359375 -0.359375 0.78125 -0.6093769q0.4375 -0.265625 0.921875 -0.390625q0.484375 -0.140625 1.015625 -0.140625q0.703125 0 1.34375 0.234375q0.640625 0.234375 1.171875 0.6875019l-0.796875 1.296875q-0.328125 -0.34375 -0.78125 -0.53125q-0.4375 -0.203125 -0.9375 -0.203125q-0.484375 0 -0.921875 0.1875q-0.4375 0.1875 -0.765625 0.515625q-0.3125 0.3125 -0.5 0.75q-0.1875 0.4375 -0.1875 0.921875q0 0.5 0.1875 0.921875q0.1875 0.421875 0.5 0.75q0.328125 0.328125 0.765625 0.515625q0.4375 0.1875 0.921875 0.1875q0.5 0 0.9375 -0.1875q0.453125 -0.203125 0.78125 -0.546875l0.796875 1.296875zm3.993332 0.765625l-1.484375 0l0 -5.96875l-2.25 0l0 -1.5000019l5.96875 0l0 1.5000019l-2.234375 0l0 5.96875zm2.5304413 -5.21875q0 -0.46875 0.171875 -0.875q0.1875 -0.40625 0.484375 -0.703125q0.3125 -0.3125019 0.71875 -0.4843769q0.40625 -0.1875 0.875 -0.1875l3.421875 0l0 1.5000019l-3.421875 0q-0.15625 0 -0.296875 0.0625q-0.140625 0.046875 -0.25 0.15625q-0.09375 0.09375 -0.15625 0.234375q-0.046875 0.140625 -0.046875 0.296875q0 0.15625 0.046875 0.296875q0.0625 0.125 0.15625 0.234375q0.109375 0.09375 0.25 0.15625q0.140625 0.0625 0.296875 0.0625l1.484375 0q0.46875 0 0.875 0.171875q0.40625 0.171875 0.703125 0.484375q0.3125 0.296875 0.484375 0.703125q0.171875 0.40625 0.171875 0.875q0 0.453125 -0.171875 0.859375q-0.171875 0.40625 -0.484375 0.71875q-0.296875 0.296875 -0.703125 0.484375q-0.40625 0.171875 -0.875 0.171875l-3.3125 0l0 -1.5l3.3125 0q0.15625 0 0.28125 -0.046875q0.140625 -0.0625 0.234375 -0.15625q0.109375 -0.109375 0.171875 -0.234375q0.0625 -0.140625 0.0625 -0.296875q0 -0.15625 -0.0625 -0.296875q-0.0625 -0.140625 -0.171875 -0.234375q-0.09375 -0.09375 -0.234375 -0.15625q-0.125 -0.0625 -0.28125 -0.0625l-1.484375 0q-0.46875 0 -0.875 -0.171875q-0.40625 -0.171875 -0.71875 -0.46875q-0.296875 -0.3125 -0.484375 -0.71875q-0.171875 -0.421875 -0.171875 -0.875z" fill-rule="nonzero"/></g></svg>